<svg xmlns="http://www.w3.org/2000/svg" viewBox="0 0 633.30 168.00" width="633" height="168" role="img" aria-label="萬閣 MAAN">
<title>萬閣 MAAN</title>
<g fill="#faf5e9">
  <path transform="translate(24.00 127.00) scale(0.120000 -0.120000)" d="M462 609L534 609L534 74L462 74ZM246 460L246 387L756 387L756 460ZM246 584L246 512L756 512L756 584ZM173 637L830 637L830 333L173 333ZM826 272L898 272L898 -3Q898 -30 892 -45Q886 -60 867 -68Q847 -76 815 -77.5Q783 -79 734 -79Q732 -65 725.5 -48Q719 -31 713 -17Q748 -18 774.5 -18Q801 -18 810 -18Q819 -17 822.5 -14Q826 -11 826 -3ZM244 91Q302 93 377 96Q452 99 537.5 103.5Q623 108 710 112L709 51Q625 46 542 41Q459 36 384.5 32.5Q310 29 250 25ZM615 174L671 192Q694 165 715 132.5Q736 100 752.5 69Q769 38 775 12L716 -9Q709 17 693.5 49Q678 81 657.5 113.5Q637 146 615 174ZM285 840L358 840L358 652L285 652ZM636 840L709 840L709 652L636 652ZM60 779L480 779L480 715L60 715ZM518 779L939 779L939 715L518 715ZM69 272L859 272L859 209L69 209ZM109 308L181 308L181 -79L109 -79Z"/>
  <path transform="translate(165.61 127.00) scale(0.120000 -0.120000)" d="M377 440L672 440L672 391L377 391ZM409 498L471 487Q437 437 386.5 391Q336 345 266 306Q258 316 246 327.5Q234 339 224 346Q288 378 335 418.5Q382 459 409 498ZM659 440L672 440L684 443L725 419Q687 364 629 321Q571 278 500 246Q429 214 353 191.5Q277 169 203 155Q198 167 188.5 182Q179 197 170 206Q240 217 313 236.5Q386 256 453 284.5Q520 313 573.5 349Q627 385 659 429ZM127 674L407 674L407 623L127 623ZM583 674L871 674L871 623L583 623ZM846 800L919 800L919 17Q919 -13 911 -30.5Q903 -48 882 -58Q862 -67 827.5 -69.5Q793 -72 743 -72Q741 -62 736.5 -49Q732 -36 726.5 -23.5Q721 -11 715 -1Q753 -2 784.5 -2Q816 -2 827 -2Q846 -2 846 18ZM132 800L454 800L454 503L132 503L132 558L383 558L383 746L132 746ZM883 800L883 746L615 746L615 558L883 558L883 503L543 503L543 800ZM87 800L160 800L160 -79L87 -79ZM330 42L673 42L673 -9L330 -9ZM315 195L691 195L691 -9L624 -9L624 146L381 146L381 -44L315 -44ZM298 344L323 388Q385 370 453 347Q521 324 586 297Q651 270 707.5 242.5Q764 215 804 190L778 138Q738 164 682 192.5Q626 221 561 249Q496 277 428.5 301.5Q361 326 298 344Z"/>
  <path transform="translate(329.66 118.25) scale(0.032227 -0.032227)" d="M180 0L180 1490L450 1490L817 550Q830 517 846.5 467.5Q863 418 881.5 360Q900 302 917 244.5Q934 187 947 138L905 138Q919 184 936 240.5Q953 297 971.5 355.5Q990 414 1007 465Q1024 516 1037 550L1399 1490L1670 1490L1670 0L1483 0L1483 851Q1483 897 1483.5 956Q1484 1015 1485.5 1080Q1487 1145 1488.5 1212Q1490 1279 1491 1342L1507 1342Q1486 1273 1462.5 1201.5Q1439 1130 1416.5 1063.5Q1394 997 1374 942Q1354 887 1340 851L1007 0L842 0L504 851Q490 886 471 939.5Q452 993 429.5 1058.5Q407 1124 383 1196.5Q359 1269 334 1342L352 1342Q354 1286 355.5 1221Q357 1156 358 1089.5Q359 1023 360 961.5Q361 900 361 851L361 0Z"/>
  <path transform="translate(409.08 118.25) scale(0.032227 -0.032227)" d="M52 0L593 1490L813 1490L1361 0L1161 0L845 884Q816 966 777.5 1088.5Q739 1211 684 1401L720 1401Q666 1209 626.5 1084.5Q587 960 561 884L254 0ZM324 416L324 582L1089 582L1089 416Z"/>
  <path transform="translate(474.42 118.25) scale(0.032227 -0.032227)" d="M52 0L593 1490L813 1490L1361 0L1161 0L845 884Q816 966 777.5 1088.5Q739 1211 684 1401L720 1401Q666 1209 626.5 1084.5Q587 960 561 884L254 0ZM324 416L324 582L1089 582L1089 416Z"/>
  <path transform="translate(539.77 118.25) scale(0.032227 -0.032227)" d="M180 0L180 1490L404 1490L1010 537Q1034 500 1068 442Q1102 384 1141.5 311Q1181 238 1219 155L1192 155Q1183 241 1179 319.5Q1175 398 1174 464Q1173 530 1173 576L1173 1490L1363 1490L1363 0L1137 0L597 848Q560 907 522.5 969.5Q485 1032 437 1117.5Q389 1203 318 1329L353 1329Q358 1218 362 1124Q366 1030 368.5 960Q371 890 371 850L371 0Z"/>
</g>
</svg>
